<svg width="24" height="24" viewBox="0 0 24 24" fill="none" xmlns="http://www.w3.org/2000/svg">
<path d="M3 10.0018V14.0018C3 14.5518 3.45 15.0018 4 15.0018H7L10.29 18.2918C10.92 18.9218 12 18.4718 12 17.5818V6.41182C12 5.52182 10.92 5.07182 10.29 5.70182L7 9.00182H4C3.45 9.00182 3 9.45182 3 10.0018ZM16.5 12.0018C16.5 10.2318 15.48 8.71182 14 7.97182V16.0218C15.48 15.2918 16.5 13.7718 16.5 12.0018ZM14 4.45182V4.65182C14 5.03182 14.25 5.36182 14.6 5.50182C17.18 6.53182 19 9.06182 19 12.0018C19 14.9418 17.18 17.4718 14.6 18.5018C14.24 18.6418 14 18.9718 14 19.3518V19.5518C14 20.1818 14.63 20.6218 15.21 20.4018C18.6 19.1118 21 15.8418 21 12.0018C21 8.16182 18.6 4.89182 15.21 3.60182C14.63 3.37182 14 3.82182 14 4.45182Z" fill="black"/>
</svg>
